<?xml version="1.0" encoding="iso-8859-1"?>
<!-- Generator: Adobe Illustrator 19.0.0, SVG Export Plug-In . SVG Version: 6.00 Build 0)  -->
<svg version="1.1" id="Layer_1" xmlns="http://www.w3.org/2000/svg" xmlns:xlink="http://www.w3.org/1999/xlink" x="0px" y="0px"
	 viewBox="0 0 512 512" style="enable-background:new 0 0 512 512;" xml:space="preserve">
<circle style="fill:#FFB344;" cx="256" cy="256" r="256"/>
<path style="fill:#FF9451;" d="M270.388,511.59c129.974-7.202,234.081-111.352,241.211-241.345L376.387,135.034l-2.803,5.822
	L256.002,23.273l-2.608,230.057L23.273,256L136.24,368.968l-5.079,3.396L270.388,511.59z"/>
<circle style="fill:#175D76;" cx="256" cy="256" r="170.667"/>
<path style="fill:#00263F;" d="M256,85.333c-0.191,0-0.383,0.007-0.574,0.007v341.32c0.191,0,0.383,0.007,0.574,0.007
	c94.256,0,170.667-76.41,170.667-170.667S350.256,85.333,256,85.333z"/>
<circle style="fill:#FFECB3;" cx="256" cy="256" r="128"/>
<path style="fill:#FFD863;" d="M256,128c-0.193,0-0.381,0.014-0.574,0.014v255.971c0.193,0,0.381,0.014,0.574,0.014
	c70.692,0,128-57.308,128-128S326.692,128,256,128z"/>
<polygon style="fill:#AE283F;" points="235.249,235.249 368.054,143.948 276.751,276.751 "/>
<polygon style="fill:#F1333F;" points="276.751,276.751 143.946,368.054 235.249,235.249 "/>
<polygon style="fill:#AE283F;" points="276.751,235.249 368.052,368.054 235.249,276.751 "/>
<polygon style="fill:#F1333F;" points="235.249,276.751 143.948,143.946 276.751,235.249 "/>
<polygon style="fill:#00BAFF;" points="212.904,256 256.002,23.273 299.099,256 "/>
<polygon style="fill:#008CC3;" points="256.002,23.273 256.002,26.81 256.002,256.431 299.099,256 "/>
<polygon style="fill:#0074A3;" points="299.096,256 256,488.727 212.901,256 "/>
<polygon style="fill:#005C83;" points="299.098,256 256.002,256.324 256.002,485.955 256,488.727 "/>
<polygon style="fill:#008CC3;" points="256,212.904 488.727,256.002 256,299.099 "/>
<polygon style="fill:#35CCFF;" points="256,299.096 23.273,256 256,212.901 "/>
<g>
</g>
<g>
</g>
<g>
</g>
<g>
</g>
<g>
</g>
<g>
</g>
<g>
</g>
<g>
</g>
<g>
</g>
<g>
</g>
<g>
</g>
<g>
</g>
<g>
</g>
<g>
</g>
<g>
</g>
</svg>
