<svg id="Layer_1" enable-background="new 0 0 512 512" height="512" viewBox="0 0 512 512" width="512" xmlns="http://www.w3.org/2000/svg"><g><g id="XMLID_4_"><g><g id="XMLID_517_"><g id="XMLID_518_"><g id="XMLID_519_"><g id="XMLID_520_"><g id="XMLID_521_"><g id="XMLID_675_"><g id="XMLID_892_"><g id="XMLID_893_"><g id="XMLID_894_"><g id="XMLID_895_"><g id="XMLID_896_"><g id="XMLID_910_"><g id="XMLID_911_"><g id="XMLID_912_"><circle cx="256" cy="256" fill="#3d5d72" r="256"/></g></g></g></g></g></g></g></g></g></g></g></g></g></g></g></g><path d="m512 256c0-32.176-5.953-62.957-16.79-91.324h-.229l.154-.198c-2.386-6.23-5.002-12.345-7.85-18.33l-72.935-72.935-271.599 173.365-24.439 202.746 45.594 45.594c28.579 11.024 59.627 17.082 92.094 17.082 141.385 0 256-114.615 256-256z" fill="#244654"/><g><path d="m414.35 275.851h-257.295v-202.638h257.295l-78.663 101.319z" fill="#ff735c"/><path d="m414.355 275.849h-257.296v-101.316h178.631z" fill="#e85642"/><path d="m118.312 73.213h48.879v376.111h-48.879z" fill="#fff7c5"/><path d="m142.749 73.216h24.437v376.107h-24.437z" fill="#ffde94"/></g></g></svg>