<svg id="Layer_1" enable-background="new 0 0 512 512" height="512" viewBox="0 0 512 512" width="512" xmlns="http://www.w3.org/2000/svg"><g><g id="XMLID_2_"><g id="XMLID_36_"><g id="XMLID_37_"><g id="XMLID_38_"><g id="XMLID_39_"><g id="XMLID_40_"><g id="XMLID_41_"><g id="XMLID_42_"><g id="XMLID_43_"><g id="XMLID_44_"><g id="XMLID_45_"><g id="XMLID_46_"><g id="XMLID_47_"><g id="XMLID_48_"><circle id="XMLID_49_" cx="256" cy="256" fill="#6ae1db" r="256"/></g></g></g></g></g></g></g></g></g></g></g></g></g></g><path d="m512 256c0-23.99-3.309-47.207-9.48-69.227l-131.233-131.232-286.478 160.96 35.757 36.1 7.284 184.05 68.296 68.296c19.203 4.6 39.241 7.053 59.854 7.053 141.385 0 256-114.615 256-256z" fill="#2fc1b6"/><g><g><g><path d="m256 130.702-81.394-78.478c-12.226-11.788-32.614-6.174-37.083 10.211l-19.775 72.51z" fill="#fed940"/><path d="m256 130.702 81.394-78.478c12.226-11.788 32.614-6.174 37.083 10.211l19.775 72.51z" fill="#fbbe2c"/></g></g><path d="m276.754 156.514h-41.508c-12.557 0-22.83-10.273-22.83-22.83v-19.907c0-16.986 13.898-30.884 30.884-30.884h25.4c16.986 0 30.884 13.898 30.884 30.884v19.907c0 12.556-10.273 22.83-22.83 22.83z" fill="#fbbe2c"/><path d="m299.58 113.78v19.9c0 8.37-4.56 15.72-11.32 19.69-3.38 2-7.32 3.14-11.51 3.14h-20.75v-73.62h12.7c16.99 0 30.88 13.9 30.88 30.89z" fill="#fd9827"/><path d="" fill="#776d6b"/><g><path d="m346 451.051h-179.999c-31.942 0-58.076-26.134-58.076-58.076v-197.816c0-6.6 5.4-12 12-12h272.151c6.6 0 12 5.4 12 12v197.816c0 31.942-26.135 58.076-58.076 58.076z" fill="#fc445f"/><path d="m404.08 195.16v197.82c0 31.94-26.14 58.07-58.08 58.07h-90v-267.89h136.08c6.6 0 12 5.4 12 12z" fill="#e00f5a"/><path d="m223.738 179.218h64.525v296.151h-64.525z" fill="#fbbe2c" transform="matrix(0 1 -1 0 583.294 71.294)"/><g><path d="m256 295.03h148.08v64.53h-148.08z" fill="#fd9827"/></g><path d="m415.663 220.031h-319.325c-11.368 0-20.584-9.216-20.584-20.584v-51.521c0-11.368 9.216-20.584 20.584-20.584h319.325c11.368 0 20.584 9.216 20.584 20.584v51.521c-.001 11.369-9.216 20.584-20.584 20.584z" fill="#776d6b"/><path d="m436.25 147.93v51.52c0 11.37-9.22 20.58-20.59 20.58h-159.66v-92.69h159.66c11.37 0 20.59 9.22 20.59 20.59z" fill="#605553"/></g><path d="m223.738 127.343h64.525v323.708h-64.525z" fill="#fed940"/><path d="m256 127.34h32.26v323.71h-32.26z" fill="#fbbe2c"/></g></g></svg>