<?xml version="1.0" encoding="iso-8859-1"?>
<!-- Generator: Adobe Illustrator 19.0.0, SVG Export Plug-In . SVG Version: 6.00 Build 0)  -->
<svg version="1.1" id="Layer_1" xmlns="http://www.w3.org/2000/svg" xmlns:xlink="http://www.w3.org/1999/xlink" x="0px" y="0px"
	 viewBox="0 0 512 512" style="enable-background:new 0 0 512 512;" xml:space="preserve">
<circle style="fill:#FFC61B;" cx="256" cy="256" r="256"/>
<path style="fill:#EAA22F;" d="M258.127,511.974c64.805-0.536,129.445-25.51,178.891-74.955
	c41.072-41.072,65.255-92.629,72.58-146.056l-85.821-85.821l-138.909,7.321l-25.967,25.967L146.468,125.997l-24.357-3.887v212.614
	l2.538,2.538l-2.089,39.143L258.127,511.974z"/>
<path style="fill:#C92F00;" d="M332.141,330.128c-1.596,0-3.177-0.631-4.349-1.851L222.58,218.891l-92.386,57.741
	c-2.827,1.764-6.549,0.907-8.314-1.917c-1.765-2.827-0.907-6.549,1.917-8.314l96.539-60.337c2.422-1.515,5.567-1.124,7.547,0.934
	l105.119,109.289l77.69-51.522c2.781-1.839,6.522-1.083,8.364,1.693c1.841,2.777,1.083,6.522-1.693,8.364l-81.886,54.303
	C334.457,329.799,333.295,330.128,332.141,330.128z"/>
<path style="fill:#930000;" d="M419.054,266.455c-1.841-2.775-5.582-3.534-8.364-1.693L333,316.285l-78.148-81.249v17.408
	l72.94,75.833c1.174,1.22,2.755,1.851,4.349,1.851c1.153,0,2.315-0.329,3.334-1.005l81.886-54.303
	C420.137,272.979,420.895,269.234,419.054,266.455z"/>
<path style="fill:#FFEDB5;" d="M126.848,378.197c-2.196,0-4.315-1.203-5.38-3.294c-1.514-2.97-0.333-6.603,2.634-8.116
	l104.448-53.239c2.331-1.186,5.16-0.741,7.006,1.11l17.556,17.556l118.401-82.034c2.739-1.896,6.499-1.217,8.395,1.524
	c1.898,2.739,1.215,6.499-1.524,8.395l-122.54,84.902c-2.398,1.66-5.639,1.371-7.702-0.693l-18.018-18.017l-100.54,51.248
	C128.705,377.985,127.769,378.197,126.848,378.197z"/>
<path style="fill:#FEE187;" d="M379.909,251.702c-1.898-2.741-5.656-3.419-8.395-1.524l-116.662,80.829v14.545
	c0.343-0.152,0.676-0.333,0.993-0.552l122.54-84.902C381.125,258.2,381.807,254.442,379.909,251.702z"/>
<path style="fill:#FF5419;" d="M201.125,278.411c-1.522,0-3.031-0.574-4.189-1.688l-70.68-68.094c-2.4-2.312-2.47-6.132-0.159-8.532
	c2.312-2.4,6.134-2.47,8.532-0.159l67.234,64.774l95.97-62.049c0.976-0.631,2.115-0.967,3.275-0.967h117.226
	c3.332,0,6.034,2.701,6.034,6.034s-2.701,6.034-6.034,6.034H302.89l-98.492,63.679C203.395,278.092,202.256,278.411,201.125,278.411
	z"/>
<path style="fill:#C92F00;" d="M418.335,201.697H301.109c-1.162,0-2.3,0.334-3.275,0.967l-42.982,27.789v14.37l48.038-31.06h115.445
	c3.332,0,6.034-2.701,6.034-6.034S421.667,201.697,418.335,201.697z"/>
<path style="fill:#386895;" d="M418.573,367.128l-15.358-15.358c-2.357-2.357-6.175-2.357-8.532,0c-2.357,2.355-2.357,6.177,0,8.532
	l5.825,5.827H132.877V129.47l5.06,5.058c2.357,2.357,6.178,2.357,8.532,0c2.357-2.357,2.357-6.177,0-8.532L131.11,110.64
	c-2.357-2.357-6.175-2.357-8.532,0l-15.358,15.358c-2.357,2.355-2.357,6.177,0,8.532c1.179,1.179,2.722,1.767,4.267,1.767
	c1.545,0,3.088-0.59,4.267-1.767l5.06-5.06v242.69c0,3.332,2.701,6.034,6.034,6.034h272.127l-4.289,4.289
	c-2.357,2.355-2.357,6.175,0,8.532c1.177,1.179,2.722,1.767,4.267,1.767c1.545,0,3.087-0.59,4.267-1.767l15.358-15.357
	c1.131-1.131,1.767-2.665,1.767-4.267C420.34,369.795,419.704,368.259,418.573,367.128z"/>
<path style="fill:#273B7A;" d="M418.573,367.128l-15.358-15.358c-2.357-2.357-6.175-2.357-8.532,0c-2.357,2.355-2.357,6.177,0,8.532
	l5.825,5.827H132.877v-0.041l-10.319,10.319c1.093,1.105,2.608,1.789,4.286,1.789H398.97l-4.289,4.289
	c-2.357,2.355-2.357,6.175,0,8.532c1.177,1.179,2.722,1.767,4.267,1.767c1.545,0,3.087-0.59,4.267-1.767l15.358-15.357
	c1.131-1.131,1.767-2.665,1.767-4.267C420.34,369.795,419.704,368.259,418.573,367.128z"/>
<g>
</g>
<g>
</g>
<g>
</g>
<g>
</g>
<g>
</g>
<g>
</g>
<g>
</g>
<g>
</g>
<g>
</g>
<g>
</g>
<g>
</g>
<g>
</g>
<g>
</g>
<g>
</g>
<g>
</g>
</svg>
